<svg
	xmlns="http://www.w3.org/2000/svg"
	viewBox="0 0 24 24"
>
	<defs>
		<style>.cls-3{fill:#382c2c}</style>
	</defs>
	<g id="Vrstva_2" data-name="Vrstva 2">
		<g id="Vrstva_1-2" data-name="Vrstva 1">
			<path fill="#ffefef" d="M0 0h24v24H0z"/>
			<path transform="rotate(180 20 12)" fill="#e8b1b6" d="M19 5.98h2v12.04h-2z"/>
			<path class="cls-3" d="M3.31 16.06v-1.8H4.8C4.93 15.5 5.48 16 6.41 16a1.28 1.28 0 001.47-1.42c0-.76-.32-1.19-1.34-1.45l-1-.26a2.52 2.52 0 01-2.23-2.72c0-2 1.29-2.93 3.26-2.93a5.77 5.77 0 012.79.64v1.92H7.92c-.1-1-.43-1.68-1.47-1.68a1.09 1.09 0 00-1.21 1.23c0 .65.28 1.1 1.19 1.31l.91.22a2.85 2.85 0 012.54 2.93c0 2-1.28 3-3.57 3a5.48 5.48 0 01-3-.73zM13 15.68h1.62c1 0 1.36-.44 1.63-1.63h1.09l-.15 2.58h-6.7v-.75l4.36-7.59h-1.47c-.89 0-1.16.46-1.43 1.5h-1.13l.11-2.42h6.42v.75z"/>
		</g>
	</g>
</svg>
